<svg xmlns="http://www.w3.org/2000/svg" width="166.607" height="199.966" viewBox="0 0 166.607 199.966">
  <g id="appleIcon" transform="translate(-6.748 -4.5)">
    <path id="Path_403" data-name="Path 403" d="M130.457,10.821c-17.492,0-24.885,8.59-37.067,8.59-12.495,0-22.022-8.538-37.172-8.538-14.837,0-30.664,9.319-40.712,25.2C1.4,58.457,3.793,100.626,26.648,136.548c8.174,12.859,19.106,27.28,33.423,27.436h.26c12.443,0,16.139-8.382,33.267-8.486h.26c16.868,0,20.252,8.434,32.642,8.434h.26c14.317-.156,25.822-16.139,34-28.946,5.883-9.215,8.069-13.848,12.6-24.26-33.059-12.911-38.369-61.12-5.675-79.6-10-12.859-24-20.3-37.224-20.3Z" transform="translate(0 40.482)" fill="#999"/>
    <path id="Path_404" data-name="Path 404" d="M57.376,4.5C46.963,5.229,34.833,12.049,27.7,20.951,21.245,29.021,15.935,40.995,18.017,52.6h.833c11.089,0,22.438-6.872,29.05-15.67C54.3,28.552,59.146,16.682,57.376,4.5Z" transform="translate(69.229 0)" fill="#999"/>
  </g>
</svg>
